<?xml version="1.0" encoding="UTF-8" standalone="no"?>
<svg
   xmlns:dc="http://purl.org/dc/elements/1.1/"
   xmlns:cc="http://creativecommons.org/ns#"
   xmlns:rdf="http://www.w3.org/1999/02/22-rdf-syntax-ns#"
   xmlns:svg="http://www.w3.org/2000/svg"
   xmlns="http://www.w3.org/2000/svg"
   xmlns:sodipodi="http://sodipodi.sourceforge.net/DTD/sodipodi-0.dtd"
   xmlns:inkscape="http://www.inkscape.org/namespaces/inkscape"
   version="1.1"
   id="svg2"
   viewBox="0 0 885.82677 478.34645"
   height="135mm"
   width="250mm"
   inkscape:version="0.91 r13725"
   sodipodi:docname="socket-top.svg">
  <sodipodi:namedview
     pagecolor="#ffffff"
     bordercolor="#666666"
     borderopacity="1"
     objecttolerance="10"
     gridtolerance="10"
     guidetolerance="10"
     inkscape:pageopacity="0"
     inkscape:pageshadow="2"
     inkscape:window-width="1871"
     inkscape:window-height="1056"
     id="namedview4407"
     showgrid="true"
     inkscape:zoom="0.94911329"
     inkscape:cx="466.00088"
     inkscape:cy="208.40519"
     inkscape:window-x="49"
     inkscape:window-y="24"
     inkscape:window-maximized="1"
     inkscape:current-layer="svg2">
    <inkscape:grid
       type="xygrid"
       id="grid4647"
       units="mm"
       spacingx="3.543307"
       spacingy="3.543307" />
  </sodipodi:namedview>
  <defs
     id="defs4" />
  <metadata
     id="metadata7">
    <rdf:RDF>
      <cc:Work
         rdf:about="">
        <dc:format>image/svg+xml</dc:format>
        <dc:type
           rdf:resource="http://purl.org/dc/dcmitype/StillImage" />
        <dc:title></dc:title>
      </cc:Work>
    </rdf:RDF>
  </metadata>
  <path
     sodipodi:nodetypes="cccccccccccccccccccccccccccccccccc"
     inkscape:connector-curvature="0"
     style="opacity:1;fill:#ffffff;fill-opacity:1;stroke:#000000;stroke-width:3.35488319;stroke-linecap:round;stroke-linejoin:round;stroke-miterlimit:4;stroke-dasharray:none;stroke-opacity:1"
     d="m 174.26865,336.7447 1.19824,-0.77671 1.9527,-0.33436 1.73761,0.29473 1.04442,0.83411 525.43668,-0.15159 1.63286,-0.35208 1.21291,-0.1086 1.11969,0.16197 1.17714,0.29719 0.65316,0.5426 0.32657,0.75767 -0.18661,0.78471 -0.74648,0.56826 -0.0467,12.74493 0.60093,0.42804 0.23884,0.76258 -0.13996,0.89296 -0.69981,0.5543 -1.41034,0.46002 -1.35297,0.0812 -0.74039,-0.17029 -0.75254,-0.37088 -525.93124,0 -0.60649,-0.10827 c -0.94343,1.36789 -2.8459,0.51412 -3.45241,0.51412 l -0.97693,-0.40589 -0.69981,-0.79785 0,-0.94709 0.69981,-0.7847 0,-12.4247 -0.36618,-1.514 c -1.12372,1.27706 -1.34609,-1.19848 -0.92276,-1.43242 z"
     id="rect4136-56-5-91" />
  <path
     sodipodi:nodetypes="cccccccccccccccccccccccccccccccccc"
     inkscape:connector-curvature="0"
     style="opacity:1;fill:#ffffff;fill-opacity:1;stroke:#000000;stroke-width:3.35488319;stroke-linecap:round;stroke-linejoin:round;stroke-miterlimit:4;stroke-dasharray:none;stroke-opacity:1"
     d="m 174.26865,283.59512 1.19824,-0.77671 1.9527,-0.33436 1.73761,0.29473 1.04442,0.83411 525.43668,-0.15159 1.63286,-0.35208 1.21291,-0.1086 1.11969,0.16197 1.17714,0.29719 0.65316,0.5426 0.32657,0.75767 -0.18661,0.78471 -0.74648,0.56826 -0.0467,12.74493 0.60093,0.42804 0.23884,0.76258 -0.13996,0.89296 -0.69981,0.5543 -1.41034,0.46002 -1.35297,0.0812 -0.74039,-0.17029 -0.75254,-0.37088 -525.93124,0 -0.60649,-0.10827 c -0.94343,1.36789 -2.8459,0.51412 -3.45241,0.51412 l -0.97693,-0.40589 -0.69981,-0.79785 0,-0.94709 0.69981,-0.7847 0,-12.4247 -0.36618,-1.514 c -1.12372,1.27706 -1.34609,-1.19848 -0.92276,-1.43242 z"
     id="rect4136-56-5-67" />
  <path
     sodipodi:nodetypes="cccccccccccccccccccccccccccccccccc"
     inkscape:connector-curvature="0"
     style="opacity:1;fill:#ffffff;fill-opacity:1;stroke:#000000;stroke-width:3.35488319;stroke-linecap:round;stroke-linejoin:round;stroke-miterlimit:4;stroke-dasharray:none;stroke-opacity:1"
     d="m 174.26865,230.44551 1.19824,-0.77671 1.9527,-0.33436 1.73761,0.29473 1.04442,0.83411 525.43668,-0.15159 1.63286,-0.35208 1.21291,-0.1086 1.11969,0.16197 1.17714,0.29719 0.65316,0.5426 0.32657,0.75767 -0.18661,0.78471 -0.74648,0.56826 -0.0467,12.74493 0.60093,0.42804 0.23884,0.76258 -0.13996,0.89296 -0.69981,0.5543 -1.41034,0.46002 -1.35297,0.0812 -0.74039,-0.17029 -0.75254,-0.37088 -525.93124,0 -0.60649,-0.10827 c -0.94343,1.36789 -2.8459,0.51412 -3.45241,0.51412 l -0.97693,-0.40589 -0.69981,-0.79785 0,-0.94709 0.69981,-0.7847 0,-12.4247 -0.36618,-1.514 c -1.12372,1.27706 -1.34609,-1.19848 -0.92276,-1.43242 z"
     id="rect4136-56-5-59" />
  <path
     sodipodi:nodetypes="cccccccccccccccccccccccccccccccccc"
     inkscape:connector-curvature="0"
     style="opacity:1;fill:#ffffff;fill-opacity:1;stroke:#000000;stroke-width:3.35488319;stroke-linecap:round;stroke-linejoin:round;stroke-miterlimit:4;stroke-dasharray:none;stroke-opacity:1"
     d="m 174.26865,177.29588 1.19824,-0.77671 1.9527,-0.33436 1.73761,0.29473 1.04442,0.83411 525.43668,-0.15159 1.63286,-0.35208 1.21291,-0.1086 1.11969,0.16197 1.17714,0.29719 0.65316,0.5426 0.32657,0.75767 -0.18661,0.78471 -0.74648,0.56826 -0.0467,12.74493 0.60093,0.42804 0.23884,0.76258 -0.13996,0.89296 -0.69981,0.5543 -1.41034,0.46002 -1.35297,0.0812 -0.74039,-0.17029 -0.75254,-0.37088 -525.93124,0 -0.60649,-0.10827 c -0.94343,1.36789 -2.8459,0.51412 -3.45241,0.51412 l -0.97693,-0.40589 -0.69981,-0.79785 0,-0.94709 0.69981,-0.7847 0,-12.4247 -0.36618,-1.514 c -1.12372,1.27706 -1.34609,-1.19848 -0.92276,-1.43242 z"
     id="rect4136-56-5-8" />
  <path
     sodipodi:nodetypes="cccccccccccccccccccccccccccccccccc"
     inkscape:connector-curvature="0"
     style="opacity:1;fill:#ffffff;fill-opacity:1;stroke:#000000;stroke-width:3.35488319;stroke-linecap:round;stroke-linejoin:round;stroke-miterlimit:4;stroke-dasharray:none;stroke-opacity:1"
     d="m 174.26865,124.14627 1.19824,-0.77671 1.9527,-0.33436 1.73761,0.29473 1.04442,0.83411 525.43668,-0.15159 1.63286,-0.35208 1.21291,-0.1086 1.11969,0.16197 1.17714,0.29719 0.65316,0.5426 0.32657,0.75767 -0.18661,0.78471 -0.74648,0.56826 -0.0467,12.74493 0.60093,0.42804 0.23884,0.76258 -0.13996,0.89296 -0.69981,0.5543 -1.41034,0.46002 -1.35297,0.0812 -0.74039,-0.17029 -0.75254,-0.37088 -525.93124,0 -0.60649,-0.10827 c -0.94343,1.36789 -2.8459,0.51412 -3.45241,0.51412 l -0.97693,-0.40589 -0.69981,-0.79785 0,-0.94709 0.69981,-0.7847 0,-12.4247 -0.36618,-1.514 c -1.12372,1.27706 -1.34609,-1.19848 -0.92276,-1.43242 z"
     id="rect4136-56-5-2" />
  <path
     sodipodi:nodetypes="cccccccccccccccccccccccccccccccccc"
     inkscape:connector-curvature="0"
     style="opacity:1;fill:#ffffff;fill-opacity:1;stroke:#000000;stroke-width:3.35488319;stroke-linecap:round;stroke-linejoin:round;stroke-miterlimit:4;stroke-dasharray:none;stroke-opacity:1"
     d="m 174.26865,389.89432 1.19824,-0.77671 1.9527,-0.33436 1.73761,0.29473 1.04442,0.83411 525.43669,-0.15159 1.63286,-0.35208 1.21291,-0.1086 1.11969,0.16197 1.17714,0.29719 0.65316,0.5426 0.32657,0.75767 -0.18661,0.78471 -0.74648,0.56826 -0.0467,12.74493 0.60093,0.42804 0.23884,0.76258 -0.13996,0.89296 -0.69981,0.5543 -1.41034,0.46002 -1.35297,0.0812 -0.74039,-0.17029 -0.75254,-0.37088 -525.93125,0 -0.60649,-0.10827 c -0.94343,1.36789 -2.8459,0.51412 -3.45241,0.51412 l -0.97693,-0.40589 -0.69981,-0.79785 0,-0.94709 0.69981,-0.7847 0,-12.4247 -0.36618,-1.514 c -1.12372,1.27706 -1.34609,-1.19848 -0.92276,-1.43242 z"
     id="rect4136-56-5-91-3" />
  <path
     sodipodi:nodetypes="cccccccccccccccccccccccccccccccccc"
     inkscape:connector-curvature="0"
     style="opacity:1;fill:#ffffff;fill-opacity:1;stroke:#000000;stroke-width:3.35488319;stroke-linecap:round;stroke-linejoin:round;stroke-miterlimit:4;stroke-dasharray:none;stroke-opacity:1"
     d="m 174.26865,70.996652 1.19824,-0.77671 1.9527,-0.33436 1.73761,0.29473 1.04442,0.83411 525.43668,-0.15159 1.63286,-0.35208 1.21291,-0.1086 1.11969,0.16197 1.17714,0.29719 0.65316,0.5426 0.32657,0.75767 -0.18661,0.78471 -0.74648,0.56826 -0.0467,12.74493 0.60093,0.42804 0.23884,0.76258 -0.13996,0.89296 -0.69981,0.5543 -1.41034,0.46002 -1.35297,0.0812 -0.74039,-0.17029 -0.75254,-0.37088 -525.93124,0 -0.60649,-0.10827 c -0.94343,1.36789 -2.8459,0.51412 -3.45241,0.51412 l -0.97693,-0.40589 -0.69981,-0.79785 0,-0.94709 0.69981,-0.7847 0,-12.4247 -0.36618,-1.514 c -1.12372,1.27706 -1.34609,-1.19848 -0.92276,-1.43242 z"
     id="rect4136-56-5-91-8" />
</svg>
