solid "model"; Produced by pycam (v0.5.1), 2016-05-20
facet normal -1.000000 0.000000 0.000000
  outer loop
    vertex 49.000000 107.000000 -6.000000
    vertex 49.000000 125.000000 -6.000000
    vertex 49.000000 107.000000 -11.000000
  endloop
endfacet
facet normal -1.000000 0.000000 0.000000
  outer loop
    vertex 49.000000 107.000000 -11.000000
    vertex 49.000000 125.000000 -6.000000
    vertex 49.000000 125.000000 -11.000000
  endloop
endfacet
facet normal 0.000000 1.000000 0.000000
  outer loop
    vertex 49.000000 107.000000 -6.000000
    vertex 49.000000 107.000000 -11.000000
    vertex 30.000000 107.000000 -6.000000
  endloop
endfacet
facet normal 0.000000 1.000000 0.000000
  outer loop
    vertex 30.000000 107.000000 -6.000000
    vertex 49.000000 107.000000 -11.000000
    vertex 0.000000 107.000000 -11.000000
  endloop
endfacet
facet normal 0.000000 1.000000 0.000000
  outer loop
    vertex 30.000000 107.000000 -6.000000
    vertex 0.000000 107.000000 -11.000000
    vertex 0.000000 107.000000 0.000000
  endloop
endfacet
facet normal 0.000000 1.000000 0.000000
  outer loop
    vertex 0.000000 107.000000 0.000000
    vertex 30.000000 107.000000 0.000000
    vertex 30.000000 107.000000 -6.000000
  endloop
endfacet
facet normal 0.000000 0.000000 1.000000
  outer loop
    vertex 49.000000 107.000000 -11.000000
    vertex 49.000000 125.000000 -11.000000
    vertex 0.000000 107.000000 -11.000000
  endloop
endfacet
facet normal 0.000000 0.000000 1.000000
  outer loop
    vertex 0.000000 107.000000 -11.000000
    vertex 49.000000 125.000000 -11.000000
    vertex 0.000000 125.000000 -11.000000
  endloop
endfacet
facet normal 0.000000 0.000000 1.000000
  outer loop
    vertex 0.000000 125.000000 0.000000
    vertex 220.000000 125.000000 0.000000
    vertex 0.000000 135.000000 0.000000
  endloop
endfacet
facet normal 0.000000 0.000000 1.000000
  outer loop
    vertex 0.000000 135.000000 0.000000
    vertex 220.000000 125.000000 0.000000
    vertex 250.000000 135.000000 0.000000
  endloop
endfacet
facet normal 0.000000 0.000000 1.000000
  outer loop
    vertex 250.000000 135.000000 0.000000
    vertex 220.000000 125.000000 0.000000
    vertex 220.000000 10.000000 0.000000
  endloop
endfacet
facet normal 0.000000 0.000000 1.000000
  outer loop
    vertex 250.000000 135.000000 0.000000
    vertex 220.000000 10.000000 0.000000
    vertex 250.000000 0.000000 0.000000
  endloop
endfacet
facet normal 0.000000 0.000000 1.000000
  outer loop
    vertex 250.000000 0.000000 0.000000
    vertex 220.000000 10.000000 0.000000
    vertex 0.000000 0.000000 0.000000
  endloop
endfacet
facet normal 0.000000 0.000000 1.000000
  outer loop
    vertex 0.000000 0.000000 0.000000
    vertex 220.000000 10.000000 0.000000
    vertex 30.000000 10.000000 0.000000
  endloop
endfacet
facet normal 0.000000 0.000000 1.000000
  outer loop
    vertex 0.000000 0.000000 0.000000
    vertex 30.000000 10.000000 0.000000
    vertex 0.000000 107.000000 0.000000
  endloop
endfacet
facet normal 0.000000 0.000000 1.000000
  outer loop
    vertex 0.000000 107.000000 0.000000
    vertex 30.000000 10.000000 0.000000
    vertex 30.000000 107.000000 0.000000
  endloop
endfacet
facet normal 0.000000 -1.000000 0.000000
  outer loop
    vertex 220.000000 125.000000 -6.000000
    vertex 220.000000 125.000000 0.000000
    vertex 49.000000 125.000000 -6.000000
  endloop
endfacet
facet normal 0.000000 -1.000000 0.000000
  outer loop
    vertex 49.000000 125.000000 -6.000000
    vertex 220.000000 125.000000 0.000000
    vertex 0.000000 125.000000 0.000000
  endloop
endfacet
facet normal 0.000000 -1.000000 0.000000
  outer loop
    vertex 49.000000 125.000000 -6.000000
    vertex 0.000000 125.000000 0.000000
    vertex 0.000000 125.000000 -11.000000
  endloop
endfacet
facet normal 0.000000 -1.000000 0.000000
  outer loop
    vertex 0.000000 125.000000 -11.000000
    vertex 49.000000 125.000000 -11.000000
    vertex 49.000000 125.000000 -6.000000
  endloop
endfacet
facet normal 0.000000 0.000000 1.000000
  outer loop
    vertex 49.000000 107.000000 -6.000000
    vertex 56.052000 115.612600 -6.000000
    vertex 49.000000 125.000000 -6.000000
  endloop
endfacet
facet normal 0.000000 0.000000 1.000000
  outer loop
    vertex 49.000000 125.000000 -6.000000
    vertex 56.052000 115.612600 -6.000000
    vertex 194.051990 115.612600 -6.000000
  endloop
endfacet
facet normal 0.000000 0.000000 1.000000
  outer loop
    vertex 49.000000 125.000000 -6.000000
    vertex 194.051990 115.612600 -6.000000
    vertex 220.000000 125.000000 -6.000000
  endloop
endfacet
facet normal 0.000000 0.000000 1.000000
  outer loop
    vertex 220.000000 125.000000 -6.000000
    vertex 194.051990 115.612600 -6.000000
    vertex 194.051990 109.612600 -6.000000
  endloop
endfacet
facet normal 0.000000 0.000000 1.000000
  outer loop
    vertex 220.000000 125.000000 -6.000000
    vertex 194.051990 109.612600 -6.000000
    vertex 194.051990 100.612600 -6.000000
  endloop
endfacet
facet normal 0.000000 0.000000 1.000000
  outer loop
    vertex 194.051990 100.612600 -6.000000
    vertex 194.051990 109.612600 -6.000000
    vertex 56.052000 100.612600 -6.000000
  endloop
endfacet
facet normal 0.000000 0.000000 1.000000
  outer loop
    vertex 56.052000 100.612600 -6.000000
    vertex 194.051990 109.612600 -6.000000
    vertex 56.052000 109.612600 -6.000000
  endloop
endfacet
facet normal 0.000000 0.000000 1.000000
  outer loop
    vertex 56.052000 100.612600 -6.000000
    vertex 56.052000 109.612600 -6.000000
    vertex 49.000000 107.000000 -6.000000
  endloop
endfacet
facet normal 0.000000 0.000000 1.000000
  outer loop
    vertex 49.000000 107.000000 -6.000000
    vertex 56.052000 109.612600 -6.000000
    vertex 56.052000 115.612600 -6.000000
  endloop
endfacet
facet normal 0.000000 0.000000 1.000000
  outer loop
    vertex 49.000000 107.000000 -6.000000
    vertex 30.000000 107.000000 -6.000000
    vertex 56.052000 100.612600 -6.000000
  endloop
endfacet
facet normal 0.000000 0.000000 1.000000
  outer loop
    vertex 56.052000 100.612600 -6.000000
    vertex 30.000000 107.000000 -6.000000
    vertex 56.052000 94.612620 -6.000000
  endloop
endfacet
facet normal 0.000000 0.000000 1.000000
  outer loop
    vertex 56.052000 94.612620 -6.000000
    vertex 30.000000 107.000000 -6.000000
    vertex 56.052000 85.612620 -6.000000
  endloop
endfacet
facet normal 0.000000 0.000000 1.000000
  outer loop
    vertex 56.052000 94.612620 -6.000000
    vertex 56.052000 85.612620 -6.000000
    vertex 194.051990 94.612620 -6.000000
  endloop
endfacet
facet normal 0.000000 0.000000 1.000000
  outer loop
    vertex 194.051990 94.612620 -6.000000
    vertex 56.052000 85.612620 -6.000000
    vertex 194.051990 85.612620 -6.000000
  endloop
endfacet
facet normal 0.000000 0.000000 1.000000
  outer loop
    vertex 194.051990 94.612620 -6.000000
    vertex 194.051990 85.612620 -6.000000
    vertex 220.000000 125.000000 -6.000000
  endloop
endfacet
facet normal 0.000000 0.000000 1.000000
  outer loop
    vertex 220.000000 125.000000 -6.000000
    vertex 194.051990 85.612620 -6.000000
    vertex 194.051990 79.612620 -6.000000
  endloop
endfacet
facet normal 0.000000 0.000000 1.000000
  outer loop
    vertex 220.000000 125.000000 -6.000000
    vertex 194.051990 79.612620 -6.000000
    vertex 194.051990 70.612620 -6.000000
  endloop
endfacet
facet normal 0.000000 0.000000 1.000000
  outer loop
    vertex 194.051990 70.612620 -6.000000
    vertex 194.051990 79.612620 -6.000000
    vertex 56.052000 70.612620 -6.000000
  endloop
endfacet
facet normal 0.000000 0.000000 1.000000
  outer loop
    vertex 56.052000 70.612620 -6.000000
    vertex 194.051990 79.612620 -6.000000
    vertex 56.052000 79.612620 -6.000000
  endloop
endfacet
facet normal 0.000000 0.000000 1.000000
  outer loop
    vertex 56.052000 70.612620 -6.000000
    vertex 56.052000 79.612620 -6.000000
    vertex 30.000000 107.000000 -6.000000
  endloop
endfacet
facet normal 0.000000 0.000000 1.000000
  outer loop
    vertex 30.000000 107.000000 -6.000000
    vertex 56.052000 79.612620 -6.000000
    vertex 56.052000 85.612620 -6.000000
  endloop
endfacet
facet normal 0.000000 0.000000 1.000000
  outer loop
    vertex 30.000000 10.000000 -6.000000
    vertex 56.052000 55.612620 -6.000000
    vertex 30.000000 107.000000 -6.000000
  endloop
endfacet
facet normal 0.000000 0.000000 1.000000
  outer loop
    vertex 30.000000 107.000000 -6.000000
    vertex 56.052000 55.612620 -6.000000
    vertex 56.052000 64.612620 -6.000000
  endloop
endfacet
facet normal 0.000000 0.000000 1.000000
  outer loop
    vertex 30.000000 107.000000 -6.000000
    vertex 56.052000 64.612620 -6.000000
    vertex 56.052000 70.612620 -6.000000
  endloop
endfacet
facet normal 0.000000 0.000000 1.000000
  outer loop
    vertex 220.000000 10.000000 -6.000000
    vertex 56.052000 19.612620 -6.000000
    vertex 30.000000 10.000000 -6.000000
  endloop
endfacet
facet normal 0.000000 0.000000 1.000000
  outer loop
    vertex 30.000000 10.000000 -6.000000
    vertex 56.052000 19.612620 -6.000000
    vertex 56.052000 25.612620 -6.000000
  endloop
endfacet
facet normal 0.000000 0.000000 1.000000
  outer loop
    vertex 30.000000 10.000000 -6.000000
    vertex 56.052000 25.612620 -6.000000
    vertex 56.052000 34.612620 -6.000000
  endloop
endfacet
facet normal 0.000000 0.000000 1.000000
  outer loop
    vertex 56.052000 34.612620 -6.000000
    vertex 56.052000 25.612620 -6.000000
    vertex 194.051990 34.612620 -6.000000
  endloop
endfacet
facet normal 0.000000 0.000000 1.000000
  outer loop
    vertex 194.051990 34.612620 -6.000000
    vertex 56.052000 25.612620 -6.000000
    vertex 194.051990 25.612620 -6.000000
  endloop
endfacet
facet normal 0.000000 0.000000 1.000000
  outer loop
    vertex 194.051990 34.612620 -6.000000
    vertex 194.051990 25.612620 -6.000000
    vertex 220.000000 10.000000 -6.000000
  endloop
endfacet
facet normal 0.000000 0.000000 1.000000
  outer loop
    vertex 220.000000 10.000000 -6.000000
    vertex 194.051990 25.612620 -6.000000
    vertex 194.051990 19.612620 -6.000000
  endloop
endfacet
facet normal 0.000000 0.000000 1.000000
  outer loop
    vertex 220.000000 10.000000 -6.000000
    vertex 194.051990 19.612620 -6.000000
    vertex 56.052000 19.612620 -6.000000
  endloop
endfacet
facet normal 0.000000 0.000000 1.000000
  outer loop
    vertex 220.000000 125.000000 -6.000000
    vertex 194.051990 64.612620 -6.000000
    vertex 220.000000 10.000000 -6.000000
  endloop
endfacet
facet normal 0.000000 0.000000 1.000000
  outer loop
    vertex 220.000000 10.000000 -6.000000
    vertex 194.051990 64.612620 -6.000000
    vertex 194.051990 55.612620 -6.000000
  endloop
endfacet
facet normal 0.000000 0.000000 1.000000
  outer loop
    vertex 220.000000 10.000000 -6.000000
    vertex 194.051990 55.612620 -6.000000
    vertex 194.051990 49.612620 -6.000000
  endloop
endfacet
facet normal 0.000000 0.000000 1.000000
  outer loop
    vertex 56.052000 49.612620 -6.000000
    vertex 56.052000 40.612620 -6.000000
    vertex 194.051990 49.612620 -6.000000
  endloop
endfacet
facet normal 0.000000 0.000000 1.000000
  outer loop
    vertex 194.051990 49.612620 -6.000000
    vertex 56.052000 40.612620 -6.000000
    vertex 194.051990 40.612620 -6.000000
  endloop
endfacet
facet normal 0.000000 0.000000 1.000000
  outer loop
    vertex 194.051990 49.612620 -6.000000
    vertex 194.051990 40.612620 -6.000000
    vertex 220.000000 10.000000 -6.000000
  endloop
endfacet
facet normal 0.000000 0.000000 1.000000
  outer loop
    vertex 220.000000 10.000000 -6.000000
    vertex 194.051990 40.612620 -6.000000
    vertex 194.051990 34.612620 -6.000000
  endloop
endfacet
facet normal 0.000000 0.000000 1.000000
  outer loop
    vertex 56.052000 40.612620 -6.000000
    vertex 56.052000 49.612620 -6.000000
    vertex 30.000000 10.000000 -6.000000
  endloop
endfacet
facet normal 0.000000 0.000000 1.000000
  outer loop
    vertex 30.000000 10.000000 -6.000000
    vertex 56.052000 49.612620 -6.000000
    vertex 56.052000 55.612620 -6.000000
  endloop
endfacet
facet normal 0.000000 0.000000 1.000000
  outer loop
    vertex 56.052000 64.612620 -6.000000
    vertex 56.052000 55.612620 -6.000000
    vertex 194.051990 64.612620 -6.000000
  endloop
endfacet
facet normal 0.000000 0.000000 1.000000
  outer loop
    vertex 194.051990 64.612620 -6.000000
    vertex 56.052000 55.612620 -6.000000
    vertex 194.051990 55.612620 -6.000000
  endloop
endfacet
facet normal 0.000000 0.000000 1.000000
  outer loop
    vertex 56.052000 34.612620 -6.000000
    vertex 56.052000 40.612620 -6.000000
    vertex 30.000000 10.000000 -6.000000
  endloop
endfacet
facet normal 0.000000 0.000000 1.000000
  outer loop
    vertex 194.051990 70.612620 -6.000000
    vertex 194.051990 64.612620 -6.000000
    vertex 220.000000 125.000000 -6.000000
  endloop
endfacet
facet normal 0.000000 0.000000 1.000000
  outer loop
    vertex 194.051990 100.612600 -6.000000
    vertex 194.051990 94.612620 -6.000000
    vertex 220.000000 125.000000 -6.000000
  endloop
endfacet
facet normal 1.000000 0.000000 0.000000
  outer loop
    vertex 30.000000 107.000000 0.000000
    vertex 30.000000 10.000000 0.000000
    vertex 30.000000 107.000000 -6.000000
  endloop
endfacet
facet normal 1.000000 0.000000 0.000000
  outer loop
    vertex 30.000000 107.000000 -6.000000
    vertex 30.000000 10.000000 0.000000
    vertex 30.000000 10.000000 -6.000000
  endloop
endfacet
facet normal 0.000000 1.000000 0.000000
  outer loop
    vertex 30.000000 10.000000 0.000000
    vertex 220.000000 10.000000 0.000000
    vertex 30.000000 10.000000 -6.000000
  endloop
endfacet
facet normal 0.000000 1.000000 0.000000
  outer loop
    vertex 30.000000 10.000000 -6.000000
    vertex 220.000000 10.000000 0.000000
    vertex 220.000000 10.000000 -6.000000
  endloop
endfacet
facet normal -1.000000 0.000000 0.000000
  outer loop
    vertex 220.000000 10.000000 0.000000
    vertex 220.000000 125.000000 0.000000
    vertex 220.000000 10.000000 -6.000000
  endloop
endfacet
facet normal -1.000000 0.000000 0.000000
  outer loop
    vertex 220.000000 10.000000 -6.000000
    vertex 220.000000 125.000000 0.000000
    vertex 220.000000 125.000000 -6.000000
  endloop
endfacet
facet normal 1.000000 0.000000 0.000000
  outer loop
    vertex 56.052000 55.612620 -6.000000
    vertex 56.052000 49.612620 -6.000000
    vertex 56.052000 55.612620 -11.000000
  endloop
endfacet
facet normal 1.000000 0.000000 0.000000
  outer loop
    vertex 56.052000 55.612620 -11.000000
    vertex 56.052000 49.612620 -6.000000
    vertex 56.052000 49.612620 -11.000000
  endloop
endfacet
facet normal 0.000000 1.000000 0.000000
  outer loop
    vertex 56.052000 49.612620 -6.000000
    vertex 194.051990 49.612620 -6.000000
    vertex 56.052000 49.612620 -11.000000
  endloop
endfacet
facet normal 0.000000 1.000000 0.000000
  outer loop
    vertex 56.052000 49.612620 -11.000000
    vertex 194.051990 49.612620 -6.000000
    vertex 194.051990 49.612620 -11.000000
  endloop
endfacet
facet normal 0.000000 1.000000 0.000000
  outer loop
    vertex 56.052000 49.612620 -11.000000
    vertex 194.051990 49.612620 -11.000000
    vertex 49.052000 49.612620 -19.000000
  endloop
endfacet
facet normal 0.000000 1.000000 0.000000
  outer loop
    vertex 49.052000 49.612620 -19.000000
    vertex 194.051990 49.612620 -11.000000
    vertex 201.051990 49.612620 -19.000000
  endloop
endfacet
facet normal 0.000000 1.000000 0.000000
  outer loop
    vertex 201.051990 49.612620 -19.000000
    vertex 194.051990 49.612620 -11.000000
    vertex 201.051990 49.612620 -11.000000
  endloop
endfacet
facet normal 0.000000 1.000000 0.000000
  outer loop
    vertex 49.052000 49.612620 -19.000000
    vertex 49.052000 49.612620 -11.000000
    vertex 56.052000 49.612620 -11.000000
  endloop
endfacet
facet normal 1.000000 0.000000 0.000000
  outer loop
    vertex 56.052000 40.612620 -6.000000
    vertex 56.052000 34.612620 -6.000000
    vertex 56.052000 40.612620 -11.000000
  endloop
endfacet
facet normal 1.000000 0.000000 0.000000
  outer loop
    vertex 56.052000 40.612620 -11.000000
    vertex 56.052000 34.612620 -6.000000
    vertex 56.052000 34.612620 -11.000000
  endloop
endfacet
facet normal 0.000000 1.000000 0.000000
  outer loop
    vertex 56.052000 34.612620 -6.000000
    vertex 194.051990 34.612620 -6.000000
    vertex 56.052000 34.612620 -11.000000
  endloop
endfacet
facet normal 0.000000 1.000000 0.000000
  outer loop
    vertex 56.052000 34.612620 -11.000000
    vertex 194.051990 34.612620 -6.000000
    vertex 194.051990 34.612620 -11.000000
  endloop
endfacet
facet normal 0.000000 1.000000 0.000000
  outer loop
    vertex 56.052000 34.612620 -11.000000
    vertex 194.051990 34.612620 -11.000000
    vertex 49.052000 34.612620 -19.000000
  endloop
endfacet
facet normal 0.000000 1.000000 0.000000
  outer loop
    vertex 49.052000 34.612620 -19.000000
    vertex 194.051990 34.612620 -11.000000
    vertex 201.051990 34.612620 -19.000000
  endloop
endfacet
facet normal 0.000000 1.000000 0.000000
  outer loop
    vertex 201.051990 34.612620 -19.000000
    vertex 194.051990 34.612620 -11.000000
    vertex 201.051990 34.612620 -11.000000
  endloop
endfacet
facet normal 0.000000 1.000000 0.000000
  outer loop
    vertex 49.052000 34.612620 -19.000000
    vertex 49.052000 34.612620 -11.000000
    vertex 56.052000 34.612620 -11.000000
  endloop
endfacet
facet normal 1.000000 0.000000 0.000000
  outer loop
    vertex 56.052000 70.612620 -6.000000
    vertex 56.052000 64.612620 -6.000000
    vertex 56.052000 70.612620 -11.000000
  endloop
endfacet
facet normal 1.000000 0.000000 0.000000
  outer loop
    vertex 56.052000 70.612620 -11.000000
    vertex 56.052000 64.612620 -6.000000
    vertex 56.052000 64.612620 -11.000000
  endloop
endfacet
facet normal 0.000000 1.000000 0.000000
  outer loop
    vertex 56.052000 64.612620 -6.000000
    vertex 194.051990 64.612620 -6.000000
    vertex 56.052000 64.612620 -11.000000
  endloop
endfacet
facet normal 0.000000 1.000000 0.000000
  outer loop
    vertex 56.052000 64.612620 -11.000000
    vertex 194.051990 64.612620 -6.000000
    vertex 194.051990 64.612620 -11.000000
  endloop
endfacet
facet normal 0.000000 1.000000 0.000000
  outer loop
    vertex 56.052000 64.612620 -11.000000
    vertex 194.051990 64.612620 -11.000000
    vertex 49.052000 64.612620 -19.000000
  endloop
endfacet
facet normal 0.000000 1.000000 0.000000
  outer loop
    vertex 49.052000 64.612620 -19.000000
    vertex 194.051990 64.612620 -11.000000
    vertex 201.051990 64.612620 -19.000000
  endloop
endfacet
facet normal 0.000000 1.000000 0.000000
  outer loop
    vertex 201.051990 64.612620 -19.000000
    vertex 194.051990 64.612620 -11.000000
    vertex 201.051990 64.612620 -11.000000
  endloop
endfacet
facet normal 0.000000 1.000000 0.000000
  outer loop
    vertex 49.052000 64.612620 -19.000000
    vertex 49.052000 64.612620 -11.000000
    vertex 56.052000 64.612620 -11.000000
  endloop
endfacet
facet normal 1.000000 0.000000 0.000000
  outer loop
    vertex 56.052000 115.612600 -12.000000
    vertex 56.052000 115.612600 -6.000000
    vertex 56.052000 115.531800 -11.000000
  endloop
endfacet
facet normal 1.000000 0.000000 0.000000
  outer loop
    vertex 56.052000 115.531800 -11.000000
    vertex 56.052000 115.612600 -6.000000
    vertex 56.052000 109.612600 -6.000000
  endloop
endfacet
facet normal 1.000000 0.000000 0.000000
  outer loop
    vertex 56.052000 115.531800 -11.000000
    vertex 56.052000 109.612600 -6.000000
    vertex 56.052000 109.612600 -11.000000
  endloop
endfacet
facet normal 1.000000 0.000000 0.000000
  outer loop
    vertex 56.052000 115.531800 -11.000000
    vertex 56.052000 115.531800 -12.000000
    vertex 56.052000 115.612600 -12.000000
  endloop
endfacet
facet normal 0.000000 1.000000 0.000000
  outer loop
    vertex 56.052000 109.612600 -6.000000
    vertex 194.051990 109.612600 -6.000000
    vertex 56.052000 109.612600 -11.000000
  endloop
endfacet
facet normal 0.000000 1.000000 0.000000
  outer loop
    vertex 56.052000 109.612600 -11.000000
    vertex 194.051990 109.612600 -6.000000
    vertex 194.051990 109.612600 -11.000000
  endloop
endfacet
facet normal 0.000000 -1.000000 0.000000
  outer loop
    vertex 194.051990 25.612620 -6.000000
    vertex 56.052000 25.612620 -6.000000
    vertex 194.051990 25.612620 -11.000000
  endloop
endfacet
facet normal 0.000000 -1.000000 0.000000
  outer loop
    vertex 194.051990 25.612620 -11.000000
    vertex 56.052000 25.612620 -6.000000
    vertex 56.052000 25.612620 -11.000000
  endloop
endfacet
facet normal 0.000000 -1.000000 0.000000
  outer loop
    vertex 194.051990 25.612620 -11.000000
    vertex 56.052000 25.612620 -11.000000
    vertex 201.051990 25.612620 -19.000000
  endloop
endfacet
facet normal 0.000000 -1.000000 0.000000
  outer loop
    vertex 201.051990 25.612620 -19.000000
    vertex 56.052000 25.612620 -11.000000
    vertex 49.052000 25.612620 -19.000000
  endloop
endfacet
facet normal 0.000000 -1.000000 0.000000
  outer loop
    vertex 49.052000 25.612620 -19.000000
    vertex 56.052000 25.612620 -11.000000
    vertex 49.052000 25.612620 -11.000000
  endloop
endfacet
facet normal 0.000000 -1.000000 0.000000
  outer loop
    vertex 201.051990 25.612620 -19.000000
    vertex 201.051990 25.612620 -11.000000
    vertex 194.051990 25.612620 -11.000000
  endloop
endfacet
facet normal 1.000000 0.000000 0.000000
  outer loop
    vertex 56.052000 25.612620 -6.000000
    vertex 56.052000 19.612620 -6.000000
    vertex 56.052000 25.612620 -11.000000
  endloop
endfacet
facet normal 1.000000 0.000000 0.000000
  outer loop
    vertex 56.052000 25.612620 -11.000000
    vertex 56.052000 19.612620 -6.000000
    vertex 56.052000 19.612620 -11.000000
  endloop
endfacet
facet normal 1.000000 0.000000 0.000000
  outer loop
    vertex 56.052000 100.612600 -6.000000
    vertex 56.052000 94.612620 -6.000000
    vertex 56.052000 100.612600 -11.000000
  endloop
endfacet
facet normal 1.000000 0.000000 0.000000
  outer loop
    vertex 56.052000 100.612600 -11.000000
    vertex 56.052000 94.612620 -6.000000
    vertex 56.052000 94.612620 -11.000000
  endloop
endfacet
facet normal 0.000000 1.000000 0.000000
  outer loop
    vertex 56.052000 94.612620 -6.000000
    vertex 194.051990 94.612620 -6.000000
    vertex 56.052000 94.612620 -11.000000
  endloop
endfacet
facet normal 0.000000 1.000000 0.000000
  outer loop
    vertex 56.052000 94.612620 -11.000000
    vertex 194.051990 94.612620 -6.000000
    vertex 194.051990 94.612620 -11.000000
  endloop
endfacet
facet normal 0.000000 1.000000 0.000000
  outer loop
    vertex 56.052000 94.612620 -11.000000
    vertex 194.051990 94.612620 -11.000000
    vertex 49.052000 94.612620 -19.000000
  endloop
endfacet
facet normal 0.000000 1.000000 0.000000
  outer loop
    vertex 49.052000 94.612620 -19.000000
    vertex 194.051990 94.612620 -11.000000
    vertex 201.051990 94.612620 -19.000000
  endloop
endfacet
facet normal 0.000000 1.000000 0.000000
  outer loop
    vertex 201.051990 94.612620 -19.000000
    vertex 194.051990 94.612620 -11.000000
    vertex 201.051990 94.612620 -11.000000
  endloop
endfacet
facet normal 0.000000 1.000000 0.000000
  outer loop
    vertex 49.052000 94.612620 -19.000000
    vertex 49.052000 94.612620 -11.000000
    vertex 56.052000 94.612620 -11.000000
  endloop
endfacet
facet normal 1.000000 0.000000 0.000000
  outer loop
    vertex 56.052000 85.612620 -6.000000
    vertex 56.052000 79.612620 -6.000000
    vertex 56.052000 85.612620 -11.000000
  endloop
endfacet
facet normal 1.000000 0.000000 0.000000
  outer loop
    vertex 56.052000 85.612620 -11.000000
    vertex 56.052000 79.612620 -6.000000
    vertex 56.052000 79.612620 -11.000000
  endloop
endfacet
facet normal 0.000000 1.000000 0.000000
  outer loop
    vertex 56.052000 79.612620 -6.000000
    vertex 194.051990 79.612620 -6.000000
    vertex 56.052000 79.612620 -11.000000
  endloop
endfacet
facet normal 0.000000 1.000000 0.000000
  outer loop
    vertex 56.052000 79.612620 -11.000000
    vertex 194.051990 79.612620 -6.000000
    vertex 194.051990 79.612620 -11.000000
  endloop
endfacet
facet normal 0.000000 1.000000 0.000000
  outer loop
    vertex 56.052000 79.612620 -11.000000
    vertex 194.051990 79.612620 -11.000000
    vertex 49.052000 79.612620 -19.000000
  endloop
endfacet
facet normal 0.000000 1.000000 0.000000
  outer loop
    vertex 49.052000 79.612620 -19.000000
    vertex 194.051990 79.612620 -11.000000
    vertex 201.051990 79.612620 -19.000000
  endloop
endfacet
facet normal 0.000000 1.000000 0.000000
  outer loop
    vertex 201.051990 79.612620 -19.000000
    vertex 194.051990 79.612620 -11.000000
    vertex 201.051990 79.612620 -11.000000
  endloop
endfacet
facet normal 0.000000 1.000000 0.000000
  outer loop
    vertex 49.052000 79.612620 -19.000000
    vertex 49.052000 79.612620 -11.000000
    vertex 56.052000 79.612620 -11.000000
  endloop
endfacet
facet normal -1.000000 0.000000 0.000000
  outer loop
    vertex 194.051990 49.612620 -6.000000
    vertex 194.051990 55.612620 -6.000000
    vertex 194.051990 49.612620 -11.000000
  endloop
endfacet
facet normal -1.000000 0.000000 0.000000
  outer loop
    vertex 194.051990 49.612620 -11.000000
    vertex 194.051990 55.612620 -6.000000
    vertex 194.051990 55.612620 -11.000000
  endloop
endfacet
facet normal -1.000000 0.000000 0.000000
  outer loop
    vertex 194.051990 109.612600 -11.000000
    vertex 194.051990 109.612600 -6.000000
    vertex 194.051990 115.531800 -11.000000
  endloop
endfacet
facet normal -1.000000 0.000000 0.000000
  outer loop
    vertex 194.051990 115.531800 -11.000000
    vertex 194.051990 109.612600 -6.000000
    vertex 194.051990 115.612600 -6.000000
  endloop
endfacet
facet normal -1.000000 0.000000 0.000000
  outer loop
    vertex 194.051990 115.531800 -11.000000
    vertex 194.051990 115.612600 -6.000000
    vertex 194.051990 115.612600 -12.000000
  endloop
endfacet
facet normal -1.000000 0.000000 0.000000
  outer loop
    vertex 194.051990 115.612600 -12.000000
    vertex 194.051990 115.531800 -12.000000
    vertex 194.051990 115.531800 -11.000000
  endloop
endfacet
facet normal 0.000000 -1.000000 0.000000
  outer loop
    vertex 194.051990 115.612600 -6.000000
    vertex 56.052000 115.612600 -6.000000
    vertex 194.051990 115.612600 -12.000000
  endloop
endfacet
facet normal 0.000000 -1.000000 0.000000
  outer loop
    vertex 194.051990 115.612600 -12.000000
    vertex 56.052000 115.612600 -6.000000
    vertex 56.052000 115.612600 -12.000000
  endloop
endfacet
facet normal 0.000000 0.000000 1.000000
  outer loop
    vertex 56.052000 115.531800 -12.000000
    vertex 194.051990 115.531800 -12.000000
    vertex 56.052000 115.612600 -12.000000
  endloop
endfacet
facet normal 0.000000 0.000000 1.000000
  outer loop
    vertex 56.052000 115.612600 -12.000000
    vertex 194.051990 115.531800 -12.000000
    vertex 194.051990 115.612600 -12.000000
  endloop
endfacet
facet normal -1.000000 0.000000 0.000000
  outer loop
    vertex 194.051990 64.612620 -6.000000
    vertex 194.051990 70.612620 -6.000000
    vertex 194.051990 64.612620 -11.000000
  endloop
endfacet
facet normal -1.000000 0.000000 0.000000
  outer loop
    vertex 194.051990 64.612620 -11.000000
    vertex 194.051990 70.612620 -6.000000
    vertex 194.051990 70.612620 -11.000000
  endloop
endfacet
facet normal -1.000000 0.000000 0.000000
  outer loop
    vertex 194.051990 94.612620 -6.000000
    vertex 194.051990 100.612600 -6.000000
    vertex 194.051990 94.612620 -11.000000
  endloop
endfacet
facet normal -1.000000 0.000000 0.000000
  outer loop
    vertex 194.051990 94.612620 -11.000000
    vertex 194.051990 100.612600 -6.000000
    vertex 194.051990 100.612600 -11.000000
  endloop
endfacet
facet normal -1.000000 0.000000 0.000000
  outer loop
    vertex 194.051990 79.612620 -6.000000
    vertex 194.051990 85.612620 -6.000000
    vertex 194.051990 79.612620 -11.000000
  endloop
endfacet
facet normal -1.000000 0.000000 0.000000
  outer loop
    vertex 194.051990 79.612620 -11.000000
    vertex 194.051990 85.612620 -6.000000
    vertex 194.051990 85.612620 -11.000000
  endloop
endfacet
facet normal -1.000000 0.000000 0.000000
  outer loop
    vertex 194.051990 19.612620 -6.000000
    vertex 194.051990 25.612620 -6.000000
    vertex 194.051990 19.612620 -11.000000
  endloop
endfacet
facet normal -1.000000 0.000000 0.000000
  outer loop
    vertex 194.051990 19.612620 -11.000000
    vertex 194.051990 25.612620 -6.000000
    vertex 194.051990 25.612620 -11.000000
  endloop
endfacet
facet normal -1.000000 0.000000 0.000000
  outer loop
    vertex 194.051990 34.612620 -6.000000
    vertex 194.051990 40.612620 -6.000000
    vertex 194.051990 34.612620 -11.000000
  endloop
endfacet
facet normal -1.000000 0.000000 0.000000
  outer loop
    vertex 194.051990 34.612620 -11.000000
    vertex 194.051990 40.612620 -6.000000
    vertex 194.051990 40.612620 -11.000000
  endloop
endfacet
facet normal 0.000000 -1.000000 0.000000
  outer loop
    vertex 194.051990 55.612620 -6.000000
    vertex 56.052000 55.612620 -6.000000
    vertex 194.051990 55.612620 -11.000000
  endloop
endfacet
facet normal 0.000000 -1.000000 0.000000
  outer loop
    vertex 194.051990 55.612620 -11.000000
    vertex 56.052000 55.612620 -6.000000
    vertex 56.052000 55.612620 -11.000000
  endloop
endfacet
facet normal 0.000000 -1.000000 0.000000
  outer loop
    vertex 194.051990 55.612620 -11.000000
    vertex 56.052000 55.612620 -11.000000
    vertex 201.051990 55.612620 -19.000000
  endloop
endfacet
facet normal 0.000000 -1.000000 0.000000
  outer loop
    vertex 201.051990 55.612620 -19.000000
    vertex 56.052000 55.612620 -11.000000
    vertex 49.052000 55.612620 -19.000000
  endloop
endfacet
facet normal 0.000000 -1.000000 0.000000
  outer loop
    vertex 49.052000 55.612620 -19.000000
    vertex 56.052000 55.612620 -11.000000
    vertex 49.052000 55.612620 -11.000000
  endloop
endfacet
facet normal 0.000000 -1.000000 0.000000
  outer loop
    vertex 201.051990 55.612620 -19.000000
    vertex 201.051990 55.612620 -11.000000
    vertex 194.051990 55.612620 -11.000000
  endloop
endfacet
facet normal 0.000000 0.000000 -1.000000
  outer loop
    vertex 56.052000 55.612620 -11.000000
    vertex 56.052000 49.612620 -11.000000
    vertex 49.052000 55.612620 -11.000000
  endloop
endfacet
facet normal 0.000000 0.000000 -1.000000
  outer loop
    vertex 49.052000 55.612620 -11.000000
    vertex 56.052000 49.612620 -11.000000
    vertex 49.052000 49.612620 -11.000000
  endloop
endfacet
facet normal 0.000000 0.000000 -1.000000
  outer loop
    vertex 56.052000 115.531800 -11.000000
    vertex 56.052000 109.612600 -11.000000
    vertex 49.223200 115.531800 -11.000000
  endloop
endfacet
facet normal 0.000000 0.000000 -1.000000
  outer loop
    vertex 49.223200 115.531800 -11.000000
    vertex 56.052000 109.612600 -11.000000
    vertex 49.223200 109.531800 -11.000000
  endloop
endfacet
facet normal 0.000000 0.000000 -1.000000
  outer loop
    vertex 49.223200 109.531800 -11.000000
    vertex 56.052000 109.612600 -11.000000
    vertex 194.051990 109.612600 -11.000000
  endloop
endfacet
facet normal 0.000000 0.000000 -1.000000
  outer loop
    vertex 49.223200 109.531800 -11.000000
    vertex 194.051990 109.612600 -11.000000
    vertex 201.223210 109.531800 -11.000000
  endloop
endfacet
facet normal 0.000000 0.000000 -1.000000
  outer loop
    vertex 201.223210 109.531800 -11.000000
    vertex 194.051990 109.612600 -11.000000
    vertex 201.223210 115.531800 -11.000000
  endloop
endfacet
facet normal 0.000000 0.000000 -1.000000
  outer loop
    vertex 201.223210 115.531800 -11.000000
    vertex 194.051990 109.612600 -11.000000
    vertex 194.051990 115.531800 -11.000000
  endloop
endfacet
facet normal 0.000000 -1.000000 0.000000
  outer loop
    vertex 194.051990 70.612620 -6.000000
    vertex 56.052000 70.612620 -6.000000
    vertex 194.051990 70.612620 -11.000000
  endloop
endfacet
facet normal 0.000000 -1.000000 0.000000
  outer loop
    vertex 194.051990 70.612620 -11.000000
    vertex 56.052000 70.612620 -6.000000
    vertex 56.052000 70.612620 -11.000000
  endloop
endfacet
facet normal 0.000000 -1.000000 0.000000
  outer loop
    vertex 194.051990 70.612620 -11.000000
    vertex 56.052000 70.612620 -11.000000
    vertex 201.051990 70.612620 -19.000000
  endloop
endfacet
facet normal 0.000000 -1.000000 0.000000
  outer loop
    vertex 201.051990 70.612620 -19.000000
    vertex 56.052000 70.612620 -11.000000
    vertex 49.052000 70.612620 -19.000000
  endloop
endfacet
facet normal 0.000000 -1.000000 0.000000
  outer loop
    vertex 49.052000 70.612620 -19.000000
    vertex 56.052000 70.612620 -11.000000
    vertex 49.052000 70.612620 -11.000000
  endloop
endfacet
facet normal 0.000000 -1.000000 0.000000
  outer loop
    vertex 201.051990 70.612620 -19.000000
    vertex 201.051990 70.612620 -11.000000
    vertex 194.051990 70.612620 -11.000000
  endloop
endfacet
facet normal 0.000000 0.000000 -1.000000
  outer loop
    vertex 56.052000 70.612620 -11.000000
    vertex 56.052000 64.612620 -11.000000
    vertex 49.052000 70.612620 -11.000000
  endloop
endfacet
facet normal 0.000000 0.000000 -1.000000
  outer loop
    vertex 49.052000 70.612620 -11.000000
    vertex 56.052000 64.612620 -11.000000
    vertex 49.052000 64.612620 -11.000000
  endloop
endfacet
facet normal 0.000000 -1.000000 0.000000
  outer loop
    vertex 194.051990 100.612600 -6.000000
    vertex 56.052000 100.612600 -6.000000
    vertex 194.051990 100.612600 -11.000000
  endloop
endfacet
facet normal 0.000000 -1.000000 0.000000
  outer loop
    vertex 194.051990 100.612600 -11.000000
    vertex 56.052000 100.612600 -6.000000
    vertex 56.052000 100.612600 -11.000000
  endloop
endfacet
facet normal 0.000000 -1.000000 0.000000
  outer loop
    vertex 194.051990 100.612600 -11.000000
    vertex 56.052000 100.612600 -11.000000
    vertex 201.051990 100.612600 -19.000000
  endloop
endfacet
facet normal 0.000000 -1.000000 0.000000
  outer loop
    vertex 201.051990 100.612600 -19.000000
    vertex 56.052000 100.612600 -11.000000
    vertex 49.052000 100.612600 -19.000000
  endloop
endfacet
facet normal 0.000000 -1.000000 0.000000
  outer loop
    vertex 49.052000 100.612600 -19.000000
    vertex 56.052000 100.612600 -11.000000
    vertex 49.052000 100.612600 -11.000000
  endloop
endfacet
facet normal 0.000000 -1.000000 0.000000
  outer loop
    vertex 201.051990 100.612600 -19.000000
    vertex 201.051990 100.612600 -11.000000
    vertex 194.051990 100.612600 -11.000000
  endloop
endfacet
facet normal 0.000000 0.000000 -1.000000
  outer loop
    vertex 56.052000 100.612600 -11.000000
    vertex 56.052000 94.612620 -11.000000
    vertex 49.052000 100.612600 -11.000000
  endloop
endfacet
facet normal 0.000000 0.000000 -1.000000
  outer loop
    vertex 49.052000 100.612600 -11.000000
    vertex 56.052000 94.612620 -11.000000
    vertex 49.052000 94.612620 -11.000000
  endloop
endfacet
facet normal 0.000000 -1.000000 0.000000
  outer loop
    vertex 194.051990 85.612620 -6.000000
    vertex 56.052000 85.612620 -6.000000
    vertex 194.051990 85.612620 -11.000000
  endloop
endfacet
facet normal 0.000000 -1.000000 0.000000
  outer loop
    vertex 194.051990 85.612620 -11.000000
    vertex 56.052000 85.612620 -6.000000
    vertex 56.052000 85.612620 -11.000000
  endloop
endfacet
facet normal 0.000000 -1.000000 0.000000
  outer loop
    vertex 194.051990 85.612620 -11.000000
    vertex 56.052000 85.612620 -11.000000
    vertex 201.051990 85.612620 -19.000000
  endloop
endfacet
facet normal 0.000000 -1.000000 0.000000
  outer loop
    vertex 201.051990 85.612620 -19.000000
    vertex 56.052000 85.612620 -11.000000
    vertex 49.052000 85.612620 -19.000000
  endloop
endfacet
facet normal 0.000000 -1.000000 0.000000
  outer loop
    vertex 49.052000 85.612620 -19.000000
    vertex 56.052000 85.612620 -11.000000
    vertex 49.052000 85.612620 -11.000000
  endloop
endfacet
facet normal 0.000000 -1.000000 0.000000
  outer loop
    vertex 201.051990 85.612620 -19.000000
    vertex 201.051990 85.612620 -11.000000
    vertex 194.051990 85.612620 -11.000000
  endloop
endfacet
facet normal 0.000000 0.000000 -1.000000
  outer loop
    vertex 56.052000 85.612620 -11.000000
    vertex 56.052000 79.612620 -11.000000
    vertex 49.052000 85.612620 -11.000000
  endloop
endfacet
facet normal 0.000000 0.000000 -1.000000
  outer loop
    vertex 49.052000 85.612620 -11.000000
    vertex 56.052000 79.612620 -11.000000
    vertex 49.052000 79.612620 -11.000000
  endloop
endfacet
facet normal 0.000000 0.000000 -1.000000
  outer loop
    vertex 56.052000 25.612620 -11.000000
    vertex 56.052000 19.612620 -11.000000
    vertex 49.052000 25.612620 -11.000000
  endloop
endfacet
facet normal 0.000000 0.000000 -1.000000
  outer loop
    vertex 49.052000 25.612620 -11.000000
    vertex 56.052000 19.612620 -11.000000
    vertex 49.052000 19.612620 -11.000000
  endloop
endfacet
facet normal 0.000000 -1.000000 0.000000
  outer loop
    vertex 194.051990 40.612620 -6.000000
    vertex 56.052000 40.612620 -6.000000
    vertex 194.051990 40.612620 -11.000000
  endloop
endfacet
facet normal 0.000000 -1.000000 0.000000
  outer loop
    vertex 194.051990 40.612620 -11.000000
    vertex 56.052000 40.612620 -6.000000
    vertex 56.052000 40.612620 -11.000000
  endloop
endfacet
facet normal 0.000000 -1.000000 0.000000
  outer loop
    vertex 194.051990 40.612620 -11.000000
    vertex 56.052000 40.612620 -11.000000
    vertex 201.051990 40.612620 -19.000000
  endloop
endfacet
facet normal 0.000000 -1.000000 0.000000
  outer loop
    vertex 201.051990 40.612620 -19.000000
    vertex 56.052000 40.612620 -11.000000
    vertex 49.052000 40.612620 -19.000000
  endloop
endfacet
facet normal 0.000000 -1.000000 0.000000
  outer loop
    vertex 49.052000 40.612620 -19.000000
    vertex 56.052000 40.612620 -11.000000
    vertex 49.052000 40.612620 -11.000000
  endloop
endfacet
facet normal 0.000000 -1.000000 0.000000
  outer loop
    vertex 201.051990 40.612620 -19.000000
    vertex 201.051990 40.612620 -11.000000
    vertex 194.051990 40.612620 -11.000000
  endloop
endfacet
facet normal 0.000000 0.000000 -1.000000
  outer loop
    vertex 56.052000 40.612620 -11.000000
    vertex 56.052000 34.612620 -11.000000
    vertex 49.052000 40.612620 -11.000000
  endloop
endfacet
facet normal 0.000000 0.000000 -1.000000
  outer loop
    vertex 49.052000 40.612620 -11.000000
    vertex 56.052000 34.612620 -11.000000
    vertex 49.052000 34.612620 -11.000000
  endloop
endfacet
facet normal 1.000000 0.000000 0.000000
  outer loop
    vertex 49.052000 64.612620 -19.000000
    vertex 49.052000 70.612620 -19.000000
    vertex 49.052000 64.612620 -11.000000
  endloop
endfacet
facet normal 1.000000 0.000000 0.000000
  outer loop
    vertex 49.052000 64.612620 -11.000000
    vertex 49.052000 70.612620 -19.000000
    vertex 49.052000 70.612620 -11.000000
  endloop
endfacet
facet normal -1.000000 0.000000 0.000000
  outer loop
    vertex 201.051990 70.612620 -19.000000
    vertex 201.051990 64.612620 -19.000000
    vertex 201.051990 70.612620 -11.000000
  endloop
endfacet
facet normal -1.000000 0.000000 0.000000
  outer loop
    vertex 201.051990 70.612620 -11.000000
    vertex 201.051990 64.612620 -19.000000
    vertex 201.051990 64.612620 -11.000000
  endloop
endfacet
facet normal 0.000000 0.000000 -1.000000
  outer loop
    vertex 194.051990 64.612620 -11.000000
    vertex 194.051990 70.612620 -11.000000
    vertex 201.051990 64.612620 -11.000000
  endloop
endfacet
facet normal 0.000000 0.000000 -1.000000
  outer loop
    vertex 201.051990 64.612620 -11.000000
    vertex 194.051990 70.612620 -11.000000
    vertex 201.051990 70.612620 -11.000000
  endloop
endfacet
facet normal 1.000000 0.000000 0.000000
  outer loop
    vertex 49.223200 109.531800 -19.000000
    vertex 49.223200 115.531800 -19.000000
    vertex 49.223200 109.531800 -11.000000
  endloop
endfacet
facet normal 1.000000 0.000000 0.000000
  outer loop
    vertex 49.223200 109.531800 -11.000000
    vertex 49.223200 115.531800 -19.000000
    vertex 49.223200 115.531800 -11.000000
  endloop
endfacet
facet normal 0.000000 -1.000000 0.000000
  outer loop
    vertex 56.052000 115.531800 -11.000000
    vertex 49.223200 115.531800 -11.000000
    vertex 56.052000 115.531800 -12.000000
  endloop
endfacet
facet normal 0.000000 -1.000000 0.000000
  outer loop
    vertex 56.052000 115.531800 -12.000000
    vertex 49.223200 115.531800 -11.000000
    vertex 49.223200 115.531800 -19.000000
  endloop
endfacet
facet normal 0.000000 -1.000000 0.000000
  outer loop
    vertex 56.052000 115.531800 -12.000000
    vertex 49.223200 115.531800 -19.000000
    vertex 194.051990 115.531800 -12.000000
  endloop
endfacet
facet normal 0.000000 -1.000000 0.000000
  outer loop
    vertex 194.051990 115.531800 -12.000000
    vertex 49.223200 115.531800 -19.000000
    vertex 201.223210 115.531800 -19.000000
  endloop
endfacet
facet normal 0.000000 -1.000000 0.000000
  outer loop
    vertex 194.051990 115.531800 -12.000000
    vertex 201.223210 115.531800 -19.000000
    vertex 201.223210 115.531800 -11.000000
  endloop
endfacet
facet normal 0.000000 -1.000000 0.000000
  outer loop
    vertex 201.223210 115.531800 -11.000000
    vertex 194.051990 115.531800 -11.000000
    vertex 194.051990 115.531800 -12.000000
  endloop
endfacet
facet normal -1.000000 0.000000 0.000000
  outer loop
    vertex 201.223210 115.531800 -19.000000
    vertex 201.223210 109.531800 -19.000000
    vertex 201.223210 115.531800 -11.000000
  endloop
endfacet
facet normal -1.000000 0.000000 0.000000
  outer loop
    vertex 201.223210 115.531800 -11.000000
    vertex 201.223210 109.531800 -19.000000
    vertex 201.223210 109.531800 -11.000000
  endloop
endfacet
facet normal 0.000000 1.000000 0.000000
  outer loop
    vertex 201.223210 109.531800 -19.000000
    vertex 49.223200 109.531800 -19.000000
    vertex 201.223210 109.531800 -11.000000
  endloop
endfacet
facet normal 0.000000 1.000000 0.000000
  outer loop
    vertex 201.223210 109.531800 -11.000000
    vertex 49.223200 109.531800 -19.000000
    vertex 49.223200 109.531800 -11.000000
  endloop
endfacet
facet normal 1.000000 0.000000 0.000000
  outer loop
    vertex 49.052000 19.612620 -19.000000
    vertex 49.052000 25.612620 -19.000000
    vertex 49.052000 19.612620 -11.000000
  endloop
endfacet
facet normal 1.000000 0.000000 0.000000
  outer loop
    vertex 49.052000 19.612620 -11.000000
    vertex 49.052000 25.612620 -19.000000
    vertex 49.052000 25.612620 -11.000000
  endloop
endfacet
facet normal -1.000000 0.000000 0.000000
  outer loop
    vertex 201.051990 25.612620 -19.000000
    vertex 201.051990 19.612620 -19.000000
    vertex 201.051990 25.612620 -11.000000
  endloop
endfacet
facet normal -1.000000 0.000000 0.000000
  outer loop
    vertex 201.051990 25.612620 -11.000000
    vertex 201.051990 19.612620 -19.000000
    vertex 201.051990 19.612620 -11.000000
  endloop
endfacet
facet normal 0.000000 1.000000 0.000000
  outer loop
    vertex 56.052000 19.612620 -6.000000
    vertex 194.051990 19.612620 -6.000000
    vertex 56.052000 19.612620 -11.000000
  endloop
endfacet
facet normal 0.000000 1.000000 0.000000
  outer loop
    vertex 56.052000 19.612620 -11.000000
    vertex 194.051990 19.612620 -6.000000
    vertex 194.051990 19.612620 -11.000000
  endloop
endfacet
facet normal 0.000000 1.000000 0.000000
  outer loop
    vertex 56.052000 19.612620 -11.000000
    vertex 194.051990 19.612620 -11.000000
    vertex 49.052000 19.612620 -19.000000
  endloop
endfacet
facet normal 0.000000 1.000000 0.000000
  outer loop
    vertex 49.052000 19.612620 -19.000000
    vertex 194.051990 19.612620 -11.000000
    vertex 201.051990 19.612620 -19.000000
  endloop
endfacet
facet normal 0.000000 1.000000 0.000000
  outer loop
    vertex 201.051990 19.612620 -19.000000
    vertex 194.051990 19.612620 -11.000000
    vertex 201.051990 19.612620 -11.000000
  endloop
endfacet
facet normal 0.000000 1.000000 0.000000
  outer loop
    vertex 49.052000 19.612620 -19.000000
    vertex 49.052000 19.612620 -11.000000
    vertex 56.052000 19.612620 -11.000000
  endloop
endfacet
facet normal 0.000000 0.000000 -1.000000
  outer loop
    vertex 194.051990 19.612620 -11.000000
    vertex 194.051990 25.612620 -11.000000
    vertex 201.051990 19.612620 -11.000000
  endloop
endfacet
facet normal 0.000000 0.000000 -1.000000
  outer loop
    vertex 201.051990 19.612620 -11.000000
    vertex 194.051990 25.612620 -11.000000
    vertex 201.051990 25.612620 -11.000000
  endloop
endfacet
facet normal 1.000000 0.000000 0.000000
  outer loop
    vertex 49.052000 79.612620 -19.000000
    vertex 49.052000 85.612620 -19.000000
    vertex 49.052000 79.612620 -11.000000
  endloop
endfacet
facet normal 1.000000 0.000000 0.000000
  outer loop
    vertex 49.052000 79.612620 -11.000000
    vertex 49.052000 85.612620 -19.000000
    vertex 49.052000 85.612620 -11.000000
  endloop
endfacet
facet normal -1.000000 0.000000 0.000000
  outer loop
    vertex 201.051990 85.612620 -19.000000
    vertex 201.051990 79.612620 -19.000000
    vertex 201.051990 85.612620 -11.000000
  endloop
endfacet
facet normal -1.000000 0.000000 0.000000
  outer loop
    vertex 201.051990 85.612620 -11.000000
    vertex 201.051990 79.612620 -19.000000
    vertex 201.051990 79.612620 -11.000000
  endloop
endfacet
facet normal 0.000000 0.000000 -1.000000
  outer loop
    vertex 194.051990 79.612620 -11.000000
    vertex 194.051990 85.612620 -11.000000
    vertex 201.051990 79.612620 -11.000000
  endloop
endfacet
facet normal 0.000000 0.000000 -1.000000
  outer loop
    vertex 201.051990 79.612620 -11.000000
    vertex 194.051990 85.612620 -11.000000
    vertex 201.051990 85.612620 -11.000000
  endloop
endfacet
facet normal 1.000000 0.000000 0.000000
  outer loop
    vertex 49.052000 94.612620 -19.000000
    vertex 49.052000 100.612600 -19.000000
    vertex 49.052000 94.612620 -11.000000
  endloop
endfacet
facet normal 1.000000 0.000000 0.000000
  outer loop
    vertex 49.052000 94.612620 -11.000000
    vertex 49.052000 100.612600 -19.000000
    vertex 49.052000 100.612600 -11.000000
  endloop
endfacet
facet normal -1.000000 0.000000 0.000000
  outer loop
    vertex 201.051990 100.612600 -19.000000
    vertex 201.051990 94.612620 -19.000000
    vertex 201.051990 100.612600 -11.000000
  endloop
endfacet
facet normal -1.000000 0.000000 0.000000
  outer loop
    vertex 201.051990 100.612600 -11.000000
    vertex 201.051990 94.612620 -19.000000
    vertex 201.051990 94.612620 -11.000000
  endloop
endfacet
facet normal 0.000000 0.000000 -1.000000
  outer loop
    vertex 194.051990 94.612620 -11.000000
    vertex 194.051990 100.612600 -11.000000
    vertex 201.051990 94.612620 -11.000000
  endloop
endfacet
facet normal 0.000000 0.000000 -1.000000
  outer loop
    vertex 201.051990 94.612620 -11.000000
    vertex 194.051990 100.612600 -11.000000
    vertex 201.051990 100.612600 -11.000000
  endloop
endfacet
facet normal 1.000000 0.000000 0.000000
  outer loop
    vertex 49.052000 49.612620 -19.000000
    vertex 49.052000 55.612620 -19.000000
    vertex 49.052000 49.612620 -11.000000
  endloop
endfacet
facet normal 1.000000 0.000000 0.000000
  outer loop
    vertex 49.052000 49.612620 -11.000000
    vertex 49.052000 55.612620 -19.000000
    vertex 49.052000 55.612620 -11.000000
  endloop
endfacet
facet normal -1.000000 0.000000 0.000000
  outer loop
    vertex 201.051990 55.612620 -19.000000
    vertex 201.051990 49.612620 -19.000000
    vertex 201.051990 55.612620 -11.000000
  endloop
endfacet
facet normal -1.000000 0.000000 0.000000
  outer loop
    vertex 201.051990 55.612620 -11.000000
    vertex 201.051990 49.612620 -19.000000
    vertex 201.051990 49.612620 -11.000000
  endloop
endfacet
facet normal 0.000000 0.000000 -1.000000
  outer loop
    vertex 194.051990 49.612620 -11.000000
    vertex 194.051990 55.612620 -11.000000
    vertex 201.051990 49.612620 -11.000000
  endloop
endfacet
facet normal 0.000000 0.000000 -1.000000
  outer loop
    vertex 201.051990 49.612620 -11.000000
    vertex 194.051990 55.612620 -11.000000
    vertex 201.051990 55.612620 -11.000000
  endloop
endfacet
facet normal 1.000000 0.000000 0.000000
  outer loop
    vertex 49.052000 34.612620 -19.000000
    vertex 49.052000 40.612620 -19.000000
    vertex 49.052000 34.612620 -11.000000
  endloop
endfacet
facet normal 1.000000 0.000000 0.000000
  outer loop
    vertex 49.052000 34.612620 -11.000000
    vertex 49.052000 40.612620 -19.000000
    vertex 49.052000 40.612620 -11.000000
  endloop
endfacet
facet normal -1.000000 0.000000 0.000000
  outer loop
    vertex 201.051990 40.612620 -19.000000
    vertex 201.051990 34.612620 -19.000000
    vertex 201.051990 40.612620 -11.000000
  endloop
endfacet
facet normal -1.000000 0.000000 0.000000
  outer loop
    vertex 201.051990 40.612620 -11.000000
    vertex 201.051990 34.612620 -19.000000
    vertex 201.051990 34.612620 -11.000000
  endloop
endfacet
facet normal 0.000000 0.000000 -1.000000
  outer loop
    vertex 194.051990 34.612620 -11.000000
    vertex 194.051990 40.612620 -11.000000
    vertex 201.051990 34.612620 -11.000000
  endloop
endfacet
facet normal 0.000000 0.000000 -1.000000
  outer loop
    vertex 201.051990 34.612620 -11.000000
    vertex 194.051990 40.612620 -11.000000
    vertex 201.051990 40.612620 -11.000000
  endloop
endfacet
facet normal 0.000000 0.000000 -1.000000
  outer loop
    vertex 49.052000 64.612620 -19.000000
    vertex 0.000000 135.000000 -19.000000
    vertex 49.052000 70.612620 -19.000000
  endloop
endfacet
facet normal 0.000000 0.000000 -1.000000
  outer loop
    vertex 49.052000 70.612620 -19.000000
    vertex 0.000000 135.000000 -19.000000
    vertex 49.052000 79.612620 -19.000000
  endloop
endfacet
facet normal 0.000000 0.000000 -1.000000
  outer loop
    vertex 49.052000 70.612620 -19.000000
    vertex 49.052000 79.612620 -19.000000
    vertex 201.051990 70.612620 -19.000000
  endloop
endfacet
facet normal 0.000000 0.000000 -1.000000
  outer loop
    vertex 201.051990 70.612620 -19.000000
    vertex 49.052000 79.612620 -19.000000
    vertex 201.051990 79.612620 -19.000000
  endloop
endfacet
facet normal 0.000000 0.000000 -1.000000
  outer loop
    vertex 201.051990 70.612620 -19.000000
    vertex 201.051990 79.612620 -19.000000
    vertex 250.000000 135.000000 -19.000000
  endloop
endfacet
facet normal 0.000000 0.000000 -1.000000
  outer loop
    vertex 250.000000 135.000000 -19.000000
    vertex 201.051990 79.612620 -19.000000
    vertex 201.051990 85.612620 -19.000000
  endloop
endfacet
facet normal 0.000000 0.000000 -1.000000
  outer loop
    vertex 250.000000 135.000000 -19.000000
    vertex 201.051990 85.612620 -19.000000
    vertex 201.051990 94.612620 -19.000000
  endloop
endfacet
facet normal 0.000000 0.000000 -1.000000
  outer loop
    vertex 201.051990 94.612620 -19.000000
    vertex 201.051990 85.612620 -19.000000
    vertex 49.052000 94.612620 -19.000000
  endloop
endfacet
facet normal 0.000000 0.000000 -1.000000
  outer loop
    vertex 49.052000 94.612620 -19.000000
    vertex 201.051990 85.612620 -19.000000
    vertex 49.052000 85.612620 -19.000000
  endloop
endfacet
facet normal 0.000000 0.000000 -1.000000
  outer loop
    vertex 49.052000 94.612620 -19.000000
    vertex 49.052000 85.612620 -19.000000
    vertex 0.000000 135.000000 -19.000000
  endloop
endfacet
facet normal 0.000000 0.000000 -1.000000
  outer loop
    vertex 0.000000 135.000000 -19.000000
    vertex 49.052000 85.612620 -19.000000
    vertex 49.052000 79.612620 -19.000000
  endloop
endfacet
facet normal 0.000000 0.000000 -1.000000
  outer loop
    vertex 201.051990 64.612620 -19.000000
    vertex 201.051990 55.612620 -19.000000
    vertex 49.052000 64.612620 -19.000000
  endloop
endfacet
facet normal 0.000000 0.000000 -1.000000
  outer loop
    vertex 49.052000 64.612620 -19.000000
    vertex 201.051990 55.612620 -19.000000
    vertex 49.052000 55.612620 -19.000000
  endloop
endfacet
facet normal 0.000000 0.000000 -1.000000
  outer loop
    vertex 49.052000 64.612620 -19.000000
    vertex 49.052000 55.612620 -19.000000
    vertex 0.000000 0.000000 -19.000000
  endloop
endfacet
facet normal 0.000000 0.000000 -1.000000
  outer loop
    vertex 0.000000 0.000000 -19.000000
    vertex 49.052000 55.612620 -19.000000
    vertex 49.052000 49.612620 -19.000000
  endloop
endfacet
facet normal 0.000000 0.000000 -1.000000
  outer loop
    vertex 0.000000 0.000000 -19.000000
    vertex 49.052000 49.612620 -19.000000
    vertex 49.052000 40.612620 -19.000000
  endloop
endfacet
facet normal 0.000000 0.000000 -1.000000
  outer loop
    vertex 49.052000 40.612620 -19.000000
    vertex 49.052000 49.612620 -19.000000
    vertex 201.051990 40.612620 -19.000000
  endloop
endfacet
facet normal 0.000000 0.000000 -1.000000
  outer loop
    vertex 201.051990 40.612620 -19.000000
    vertex 49.052000 49.612620 -19.000000
    vertex 201.051990 49.612620 -19.000000
  endloop
endfacet
facet normal 0.000000 0.000000 -1.000000
  outer loop
    vertex 201.051990 40.612620 -19.000000
    vertex 201.051990 49.612620 -19.000000
    vertex 250.000000 0.000000 -19.000000
  endloop
endfacet
facet normal 0.000000 0.000000 -1.000000
  outer loop
    vertex 250.000000 0.000000 -19.000000
    vertex 201.051990 49.612620 -19.000000
    vertex 201.051990 55.612620 -19.000000
  endloop
endfacet
facet normal 0.000000 0.000000 -1.000000
  outer loop
    vertex 250.000000 0.000000 -19.000000
    vertex 201.051990 55.612620 -19.000000
    vertex 201.051990 64.612620 -19.000000
  endloop
endfacet
facet normal 0.000000 0.000000 -1.000000
  outer loop
    vertex 250.000000 0.000000 -19.000000
    vertex 201.051990 64.612620 -19.000000
    vertex 250.000000 135.000000 -19.000000
  endloop
endfacet
facet normal 0.000000 0.000000 -1.000000
  outer loop
    vertex 250.000000 135.000000 -19.000000
    vertex 201.051990 64.612620 -19.000000
    vertex 201.051990 70.612620 -19.000000
  endloop
endfacet
facet normal 0.000000 0.000000 -1.000000
  outer loop
    vertex 49.223200 109.531800 -19.000000
    vertex 0.000000 135.000000 -19.000000
    vertex 49.223200 115.531800 -19.000000
  endloop
endfacet
facet normal 0.000000 0.000000 -1.000000
  outer loop
    vertex 49.223200 115.531800 -19.000000
    vertex 0.000000 135.000000 -19.000000
    vertex 250.000000 135.000000 -19.000000
  endloop
endfacet
facet normal 0.000000 0.000000 -1.000000
  outer loop
    vertex 49.223200 115.531800 -19.000000
    vertex 250.000000 135.000000 -19.000000
    vertex 201.223210 115.531800 -19.000000
  endloop
endfacet
facet normal 0.000000 0.000000 -1.000000
  outer loop
    vertex 201.223210 115.531800 -19.000000
    vertex 250.000000 135.000000 -19.000000
    vertex 201.223210 109.531800 -19.000000
  endloop
endfacet
facet normal 0.000000 0.000000 -1.000000
  outer loop
    vertex 201.223210 109.531800 -19.000000
    vertex 250.000000 135.000000 -19.000000
    vertex 201.051990 100.612600 -19.000000
  endloop
endfacet
facet normal 0.000000 0.000000 -1.000000
  outer loop
    vertex 201.223210 109.531800 -19.000000
    vertex 201.051990 100.612600 -19.000000
    vertex 49.223200 109.531800 -19.000000
  endloop
endfacet
facet normal 0.000000 0.000000 -1.000000
  outer loop
    vertex 49.223200 109.531800 -19.000000
    vertex 201.051990 100.612600 -19.000000
    vertex 49.052000 100.612600 -19.000000
  endloop
endfacet
facet normal 0.000000 0.000000 -1.000000
  outer loop
    vertex 49.223200 109.531800 -19.000000
    vertex 49.052000 100.612600 -19.000000
    vertex 0.000000 135.000000 -19.000000
  endloop
endfacet
facet normal 0.000000 0.000000 -1.000000
  outer loop
    vertex 0.000000 135.000000 -19.000000
    vertex 49.052000 100.612600 -19.000000
    vertex 49.052000 94.612620 -19.000000
  endloop
endfacet
facet normal 0.000000 0.000000 -1.000000
  outer loop
    vertex 49.052000 19.612620 -19.000000
    vertex 0.000000 0.000000 -19.000000
    vertex 49.052000 25.612620 -19.000000
  endloop
endfacet
facet normal 0.000000 0.000000 -1.000000
  outer loop
    vertex 49.052000 25.612620 -19.000000
    vertex 0.000000 0.000000 -19.000000
    vertex 49.052000 34.612620 -19.000000
  endloop
endfacet
facet normal 0.000000 0.000000 -1.000000
  outer loop
    vertex 49.052000 25.612620 -19.000000
    vertex 49.052000 34.612620 -19.000000
    vertex 201.051990 25.612620 -19.000000
  endloop
endfacet
facet normal 0.000000 0.000000 -1.000000
  outer loop
    vertex 201.051990 25.612620 -19.000000
    vertex 49.052000 34.612620 -19.000000
    vertex 201.051990 34.612620 -19.000000
  endloop
endfacet
facet normal 0.000000 0.000000 -1.000000
  outer loop
    vertex 201.051990 25.612620 -19.000000
    vertex 201.051990 34.612620 -19.000000
    vertex 250.000000 0.000000 -19.000000
  endloop
endfacet
facet normal 0.000000 0.000000 -1.000000
  outer loop
    vertex 250.000000 0.000000 -19.000000
    vertex 201.051990 34.612620 -19.000000
    vertex 201.051990 40.612620 -19.000000
  endloop
endfacet
facet normal 0.000000 0.000000 -1.000000
  outer loop
    vertex 0.000000 0.000000 -19.000000
    vertex 49.052000 19.612620 -19.000000
    vertex 250.000000 0.000000 -19.000000
  endloop
endfacet
facet normal 0.000000 0.000000 -1.000000
  outer loop
    vertex 250.000000 0.000000 -19.000000
    vertex 49.052000 19.612620 -19.000000
    vertex 201.051990 19.612620 -19.000000
  endloop
endfacet
facet normal 0.000000 0.000000 -1.000000
  outer loop
    vertex 250.000000 0.000000 -19.000000
    vertex 201.051990 19.612620 -19.000000
    vertex 201.051990 25.612620 -19.000000
  endloop
endfacet
facet normal 0.000000 0.000000 -1.000000
  outer loop
    vertex 201.051990 94.612620 -19.000000
    vertex 201.051990 100.612600 -19.000000
    vertex 250.000000 135.000000 -19.000000
  endloop
endfacet
facet normal 0.000000 0.000000 -1.000000
  outer loop
    vertex 49.052000 40.612620 -19.000000
    vertex 49.052000 34.612620 -19.000000
    vertex 0.000000 0.000000 -19.000000
  endloop
endfacet
facet normal 0.000000 0.000000 -1.000000
  outer loop
    vertex 0.000000 0.000000 -19.000000
    vertex 0.000000 135.000000 -19.000000
    vertex 49.052000 64.612620 -19.000000
  endloop
endfacet
facet normal -1.000000 0.000000 0.000000
  outer loop
    vertex 0.000000 125.000000 0.000000
    vertex 0.000000 135.000000 0.000000
    vertex 0.000000 125.000000 -11.000000
  endloop
endfacet
facet normal -1.000000 0.000000 0.000000
  outer loop
    vertex 0.000000 125.000000 -11.000000
    vertex 0.000000 135.000000 0.000000
    vertex 0.000000 135.000000 -19.000000
  endloop
endfacet
facet normal -1.000000 0.000000 0.000000
  outer loop
    vertex 0.000000 125.000000 -11.000000
    vertex 0.000000 135.000000 -19.000000
    vertex 0.000000 107.000000 -11.000000
  endloop
endfacet
facet normal -1.000000 0.000000 0.000000
  outer loop
    vertex 0.000000 107.000000 -11.000000
    vertex 0.000000 135.000000 -19.000000
    vertex 0.000000 0.000000 -19.000000
  endloop
endfacet
facet normal -1.000000 0.000000 0.000000
  outer loop
    vertex 0.000000 107.000000 -11.000000
    vertex 0.000000 0.000000 -19.000000
    vertex 0.000000 0.000000 0.000000
  endloop
endfacet
facet normal -1.000000 0.000000 0.000000
  outer loop
    vertex 0.000000 0.000000 0.000000
    vertex 0.000000 107.000000 0.000000
    vertex 0.000000 107.000000 -11.000000
  endloop
endfacet
facet normal 0.000000 -1.000000 0.000000
  outer loop
    vertex 250.000000 0.000000 -19.000000
    vertex 250.000000 0.000000 0.000000
    vertex 0.000000 0.000000 -19.000000
  endloop
endfacet
facet normal 0.000000 -1.000000 0.000000
  outer loop
    vertex 0.000000 0.000000 -19.000000
    vertex 250.000000 0.000000 0.000000
    vertex 0.000000 0.000000 0.000000
  endloop
endfacet
facet normal 1.000000 0.000000 0.000000
  outer loop
    vertex 250.000000 135.000000 -19.000000
    vertex 250.000000 135.000000 0.000000
    vertex 250.000000 0.000000 -19.000000
  endloop
endfacet
facet normal 1.000000 0.000000 0.000000
  outer loop
    vertex 250.000000 0.000000 -19.000000
    vertex 250.000000 135.000000 0.000000
    vertex 250.000000 0.000000 0.000000
  endloop
endfacet
facet normal 0.000000 1.000000 0.000000
  outer loop
    vertex 0.000000 135.000000 -19.000000
    vertex 0.000000 135.000000 0.000000
    vertex 250.000000 135.000000 -19.000000
  endloop
endfacet
facet normal 0.000000 1.000000 0.000000
  outer loop
    vertex 250.000000 135.000000 -19.000000
    vertex 0.000000 135.000000 0.000000
    vertex 250.000000 135.000000 0.000000
  endloop
endfacet
endsolid
